<?xml version="1.0" standalone="no"?>
<!DOCTYPE svg PUBLIC "-//W3C//DTD SVG 20010904//EN"
 "http://www.w3.org/TR/2001/REC-SVG-20010904/DTD/svg10.dtd">
<svg version="1.0" xmlns="http://www.w3.org/2000/svg"
 width="900.000000pt" height="900.000000pt" viewBox="0 0 900.000000 900.000000"
 preserveAspectRatio="xMidYMid meet">
<metadata>
Created by potrace 1.14, written by Peter Selinger 2001-2017
</metadata>
<g transform="translate(0.000000,900.000000) scale(0.100000,-0.100000)"
fill="#000000" stroke="none">
<path d="M4338 7695 c-2 -1 -43 -6 -93 -9 -49 -4 -103 -8 -120 -10 -16 -2 -55
-7 -85 -10 -30 -4 -62 -9 -70 -11 -8 -2 -35 -7 -60 -10 -96 -14 -393 -96 -526
-145 -158 -60 -326 -137 -458 -212 -79 -45 -304 -190 -339 -218 -7 -5 -41 -33
-77 -62 -96 -77 -234 -203 -314 -287 -39 -41 -78 -81 -87 -90 -35 -35 -163
-198 -228 -289 -118 -168 -240 -384 -313 -557 -9 -22 -25 -60 -36 -85 -51
-120 -121 -348 -158 -515 -10 -43 -40 -231 -49 -300 -25 -209 -26 -622 -1
-765 3 -14 7 -43 10 -65 55 -422 218 -882 432 -1222 86 -136 221 -326 266
-375 7 -7 46 -50 85 -95 69 -76 209 -217 263 -263 14 -12 37 -32 52 -45 49
-44 232 -181 305 -228 352 -229 721 -381 1123 -461 69 -14 150 -28 180 -31 30
-4 66 -8 80 -11 120 -18 510 -25 645 -11 154 16 181 19 200 23 10 2 37 6 60 9
66 9 144 25 250 51 568 141 1065 421 1489 840 336 332 609 770 764 1229 60
177 122 441 138 584 2 19 6 49 8 66 13 77 20 223 20 385 0 161 -9 354 -18 369
-2 3 -7 40 -10 80 -4 41 -9 78 -11 81 -2 3 -6 26 -10 50 -25 177 -124 502
-215 711 -295 672 -819 1226 -1485 1566 -248 127 -622 252 -865 289 -19 2 -57
9 -85 14 -27 5 -81 12 -120 15 -38 4 -83 9 -100 12 -31 5 -432 13 -437 8z
m346 -544 l43 -1 54 -87 c30 -49 59 -97 65 -108 6 -11 31 -56 57 -101 64 -110
183 -362 247 -518 81 -201 189 -541 176 -554 -5 -4 -1087 -6 -1292 -3 -28 1
-34 6 -48 43 -27 66 -98 168 -160 230 l-58 58 28 72 c51 137 113 273 205 453
80 156 158 292 248 432 51 79 54 82 94 85 37 3 208 2 341 -1z m-1128 -188 c-6
-16 -45 -95 -85 -178 -40 -82 -82 -172 -93 -199 -10 -27 -27 -68 -37 -90 -10
-23 -38 -92 -61 -154 -43 -112 -43 -112 -84 -123 -191 -51 -369 -205 -442
-383 -11 -25 -23 -47 -29 -47 -34 -5 -545 -3 -545 1 0 9 113 190 159 255 221
313 561 612 906 796 95 51 302 148 317 149 4 0 1 -12 -6 -27z m1975 -15 c217
-87 507 -269 709 -443 49 -42 248 -243 288 -290 47 -56 197 -257 205 -275 4
-8 27 -46 51 -85 25 -38 43 -72 40 -74 -6 -7 -912 -3 -923 3 -5 4 -12 25 -16
49 -21 127 -175 598 -249 762 -8 17 -28 64 -46 105 -18 41 -55 119 -81 173
-27 53 -45 97 -40 97 4 0 33 -10 62 -22z m-2710 -1768 c21 -29 65 -80 98 -114
42 -42 60 -67 57 -81 -2 -11 -7 -65 -10 -120 -4 -55 -9 -127 -11 -160 -5 -67
-5 -455 -1 -525 7 -104 17 -219 23 -280 4 -36 7 -81 8 -100 l0 -34 -513 -1
c-447 0 -515 2 -522 15 -8 15 -55 199 -65 255 -7 39 -22 155 -30 230 -19 173
-5 496 29 670 2 11 7 38 10 60 11 62 48 208 56 225 7 13 64 15 421 14 l413 0
37 -54z m2633 49 c3 -2 10 -56 16 -119 6 -63 13 -128 16 -145 7 -39 13 -669 7
-757 -5 -71 -5 -71 -77 -85 -47 -9 -200 -100 -254 -152 -58 -55 -125 -144
-137 -180 -3 -10 -16 -20 -28 -23 -31 -5 -1456 -3 -1461 3 -2 2 -7 36 -10 74
-3 39 -8 81 -10 95 -6 34 -14 116 -23 241 -13 191 -5 641 13 701 3 9 19 20 37
23 54 12 169 70 234 118 59 44 155 149 174 191 10 21 10 21 754 21 409 -1 746
-3 749 -6z m1596 -9 c19 -30 73 -280 85 -390 3 -30 8 -77 11 -105 8 -73 8
-359 0 -440 -10 -101 -17 -158 -21 -175 -3 -8 -7 -35 -10 -60 -7 -51 -55 -273
-61 -280 -3 -2 -189 -4 -414 -5 l-409 0 -13 25 c-34 68 -175 230 -199 230 -4
0 -6 10 -4 21 25 127 25 787 1 974 -3 17 -7 59 -10 95 -3 36 -8 76 -11 90 -2
13 -1 27 4 30 5 3 242 5 526 4 429 0 518 -3 525 -14z m-3960 -2003 c0 -23 77
-295 120 -425 73 -222 165 -450 261 -648 27 -56 49 -104 49 -107 0 -8 -88 31
-220 97 -367 184 -696 464 -947 806 -70 96 -136 198 -167 258 l-17 32 461 0
c377 0 460 -2 460 -13z m1892 4 c11 -1 24 -16 33 -37 24 -58 101 -159 159
-210 l54 -46 -18 -47 c-90 -232 -109 -278 -206 -476 -117 -242 -298 -547 -331
-559 -17 -7 -270 -7 -328 -1 -16 2 -44 4 -62 4 -36 1 -48 17 -160 211 -200
347 -350 700 -452 1062 -28 97 -28 97 -7 100 17 2 1250 1 1318 -1z m1843 -3
c11 -10 -143 -244 -245 -372 -103 -130 -284 -310 -420 -419 -203 -161 -472
-318 -697 -406 l-52 -20 54 102 c92 175 245 540 286 682 8 26 17 32 71 48 35
10 92 35 128 55 90 49 215 177 259 264 27 54 38 67 60 70 42 5 551 1 556 -4z"/>
<path d="M8076 5668 c3 -5 -2 -11 -10 -14 -19 -7 -22 -25 -3 -21 7 1 11 -6 10
-18 -1 -11 0 -14 3 -7 8 17 25 15 18 -2 -3 -8 -1 -17 5 -21 7 -4 8 1 4 12 -3
10 -3 15 2 11 4 -4 14 -3 22 3 10 9 10 15 2 25 -8 10 -8 14 0 14 6 0 11 5 11
11 0 5 -4 8 -9 4 -5 -3 -12 -1 -16 4 -3 5 -14 9 -25 8 -10 -1 -16 -5 -14 -9z
m32 -9 c-2 -3 3 -13 11 -22 7 -10 11 -17 7 -17 -3 0 -9 0 -13 0 -5 0 -8 5 -8
12 0 6 -6 13 -14 16 -9 3 -11 0 -6 -8 5 -9 4 -11 -4 -6 -9 6 -9 11 0 22 11 14
35 16 27 3z"/>
</g>
</svg>
